<svg width="129" height="20" viewBox="0 0 129 20" fill="none" xmlns="http://www.w3.org/2000/svg">
<path d="M30.7666 4.34912H31.7233V6.32478H30.485C29.5147 6.32478 28.7913 6.55865 28.3115 7.02796C27.8346 7.49569 27.5951 8.26532 27.5951 9.33496V15.8132H25.6406V4.39406H27.5951V6.21624C27.5951 6.31909 27.6466 6.36972 27.747 6.36972C27.8042 6.36972 27.8473 6.35548 27.878 6.32605C27.9087 6.2963 27.9349 6.23871 27.9656 6.14978C28.3419 4.95039 29.2777 4.35007 30.7679 4.35007H30.7666V4.3488V4.34912ZM43.7684 6.79694C44.2814 7.71151 44.5393 8.81375 44.5393 10.1017C44.5393 11.3897 44.2827 12.492 43.7684 13.4065C43.2539 14.3211 42.5874 15.0059 41.769 15.4597C40.9507 15.9135 40.0709 16.1404 39.1301 16.1404C37.2759 16.1404 35.9724 15.3936 35.2195 13.8996C35.1623 13.7825 35.0885 13.7233 35.0021 13.7233C34.9157 13.7233 34.8711 13.767 34.8711 13.8559V19.9835H32.9163V4.39279H34.8711V6.34757C34.8711 6.43491 34.9142 6.48017 35.0021 6.48017C35.0901 6.48017 35.161 6.42225 35.2195 6.3039C35.9724 4.8102 37.2759 4.06304 39.1301 4.06304C40.0709 4.06304 40.9507 4.28994 41.769 4.74375C42.5874 5.19755 43.2526 5.88237 43.7684 6.79694ZM42.5861 10.1017C42.5861 8.75457 42.2279 7.70455 41.5111 6.95074C40.7946 6.19662 39.851 5.82034 38.6756 5.82034C37.5003 5.82034 36.5566 6.19788 35.8398 6.95074C35.1221 7.70455 34.86 8.75583 34.86 10.1017C34.86 11.4476 35.1233 12.4989 35.8398 13.2527C36.5566 14.0081 37.5015 14.3831 38.6756 14.3831C39.8497 14.3831 40.7946 14.0056 41.5111 13.2527C42.2279 12.5002 42.5861 11.4476 42.5861 10.1017ZM10.8505 6.81372C11.3635 7.72829 11.6214 8.83052 11.6214 10.1185C11.6214 11.4065 11.3647 12.5087 10.8505 13.4233C10.3359 14.3379 9.66977 15.023 8.85141 15.4765C8.03304 15.9303 7.15328 16.1572 6.21244 16.1572C4.3583 16.1572 3.0548 15.4104 2.30194 13.9164C2.24497 13.7993 2.17092 13.7401 2.08453 13.7401C1.99813 13.7401 1.95351 13.7838 1.95351 13.8724V20H0V4.40956H1.95446V6.36402C1.95446 6.45137 1.9975 6.49662 2.08548 6.49662C2.17345 6.49662 2.24434 6.43871 2.30288 6.32035C3.05574 4.82666 4.35925 4.07949 6.21339 4.07949C7.15454 4.07949 8.03399 4.3064 8.85236 4.7602C9.67072 5.21401 10.3356 5.89883 10.8514 6.8134H10.8499L10.8505 6.81372ZM9.66661 10.1185C9.66661 8.77134 9.30838 7.72132 8.59191 6.96751C7.87513 6.21497 6.93017 5.83712 5.7561 5.83712C4.58203 5.83712 3.63708 6.21465 2.92062 6.96751C2.20415 7.72291 1.94054 8.77292 1.94054 10.1185C1.94054 11.4641 2.20415 12.5157 2.92062 13.2698C3.63708 14.0252 4.58109 14.3999 5.7561 14.3999C6.93112 14.3999 7.87513 14.0224 8.59191 13.2698C9.30838 12.5173 9.66661 11.4644 9.66661 10.1185ZM22.1861 12.186H24.2494C23.9747 13.2556 23.413 14.1812 22.5668 14.9635C21.719 15.7471 20.5063 16.1376 18.9269 16.1376C17.7392 16.1376 16.6936 15.8923 15.7889 15.4018C14.8841 14.9113 14.1857 14.2138 13.692 13.305C13.1986 12.3973 12.9531 11.3293 12.9531 10.0989C12.9531 8.86849 13.1929 7.80044 13.6695 6.89283C14.1464 5.98522 14.817 5.28616 15.6784 4.79596C16.5401 4.30545 17.5493 4.06019 18.7079 4.06019C19.8665 4.06019 20.8269 4.3026 21.6298 4.78457C22.4342 5.2678 23.0336 5.90927 23.4323 6.70549C23.8311 7.50455 24.0289 8.3783 24.0289 9.32958V10.6473H15.0145C15.0854 11.7888 15.4677 12.698 16.1547 13.3701C16.842 14.0439 17.7661 14.3806 18.925 14.3806C19.8658 14.3806 20.588 14.1876 21.0874 13.7986C21.5864 13.4097 21.9516 12.8727 22.1845 12.1837L22.1858 12.1866L22.1861 12.186ZM14.9743 9.00236H21.7956C21.7956 8.0074 21.5418 7.2267 21.0345 6.66308C20.5272 6.10073 19.731 5.8175 18.6449 5.8175C17.6313 5.8175 16.8018 6.09218 16.1579 6.64188C15.5139 7.18999 15.1192 7.97797 14.9743 9.00236ZM46.1159 15.8107H48.072V0H46.1159V15.812V15.8107ZM73.605 3.14562H75.8889V0.672163H73.605V3.1453V3.14562ZM82.0377 14.1097C81.6826 14.1464 81.4678 14.1648 81.3972 14.1648C81.2965 14.1648 81.214 14.1353 81.1573 14.0759C81.0997 14.0179 81.0696 13.9379 81.0696 13.8334C81.0696 13.7616 81.0883 13.5445 81.1253 13.1853C81.1598 12.8274 81.1795 12.2736 81.1795 11.528V6.06434H83.9675L83.4181 4.39153H81.1804V1.31616H79.2266V4.38994H77.1V6.06275H79.2266V12.0746C79.2266 13.3344 79.532 14.2717 80.1389 14.886C80.7469 15.5006 81.6741 15.8091 82.9209 15.8091H84.4415V14.0531H83.6804C82.9418 14.0531 82.3947 14.0714 82.0396 14.1081L82.0377 14.1097ZM93.8531 4.39121L90.616 13.9727C90.5733 14.091 90.5043 14.2448 90.2834 14.2448C90.0625 14.2448 89.9919 14.0914 89.948 13.9727L86.7109 4.39121H84.7175L88.4663 15.8107H89.7922C89.8783 15.8107 89.9445 15.8192 89.9891 15.8332C90.0321 15.8474 90.0682 15.8838 90.0976 15.943C90.1543 16.0303 90.1473 16.1629 90.0752 16.3376L89.4672 18.0063C89.3796 18.2262 89.2134 18.336 88.9685 18.336C88.8808 18.336 88.6786 18.3177 88.3603 18.281C88.0413 18.2443 87.6302 18.2262 87.1229 18.2262H85.5362V19.982H87.6216C88.8384 19.982 89.5704 19.7734 90.2008 19.3563C90.8312 18.9392 91.3189 18.2035 91.667 17.1496L95.7158 4.82982V4.39153H93.8531V4.39121ZM66.989 8.6514L63.9257 4.39121H61.775V4.82951L65.4453 9.77041L60.97 15.3708V15.8091H63.1646L66.7276 11.2192L70.0514 15.8091H72.1594V15.3708L68.2694 10.1002L72.486 4.85198V4.39121H70.2913L66.99 8.6514H66.989ZM73.8129 15.8107H75.7686V4.39279H73.8129V15.812V15.8107ZM60.9434 12.186C60.6674 13.2556 60.1076 14.1812 59.2614 14.9635C58.4133 15.7471 57.2006 16.1376 55.6208 16.1376C54.4335 16.1376 53.3876 15.8923 52.4828 15.4018C51.5765 14.9113 50.8799 14.2138 50.3862 13.305C49.8941 12.3973 49.6486 11.3293 49.6486 10.0989C49.6486 8.86849 49.8885 7.80044 50.3654 6.89283C50.8438 5.98522 51.5128 5.28616 52.3746 4.79596C53.2353 4.30545 54.2449 4.06019 55.405 4.06019C56.5651 4.06019 57.524 4.3026 58.3281 4.78457C59.1313 5.2678 59.7326 5.90927 60.1307 6.70549C60.5298 7.50455 60.7275 8.3783 60.7275 9.32958V10.6473H51.7122C51.7847 11.7888 52.1648 12.698 52.8527 13.3701C53.5398 14.0439 54.4642 14.3806 55.6227 14.3806C56.5636 14.3806 57.286 14.1876 57.7848 13.7986C58.2835 13.4097 58.649 12.8727 58.8804 12.1837H60.945L60.9434 12.1866V12.186ZM51.7176 9.00236H58.5389C58.5389 8.0074 58.2851 7.2267 57.7794 6.66308C57.2712 6.10073 56.4759 5.8175 55.3895 5.8175C54.3755 5.8175 53.5467 6.09218 52.9024 6.64188C52.2584 7.18999 51.8629 7.97797 51.7192 9.00236H51.7176Z" fill="#FCFCF9"/>
<path d="M107.921 6.18228C106.67 3.81769 103.108 3.25787 101.36 5.17404C101.307 5.23037 101.212 5.19303 101.212 5.11518V4.3639H99.3145V17.6185H101.212V12.5542C101.212 12.4767 101.307 12.4393 101.36 12.4957C102.02 13.1909 102.955 13.6533 104.143 13.6533C106.795 13.6707 108.619 11.5172 108.56 8.83486C108.56 7.79655 108.345 6.90413 107.921 6.18228ZM106.662 8.83486C106.662 9.80449 106.403 10.6798 105.893 11.2188C104.967 12.2817 102.817 12.271 101.882 11.2188C100.884 10.1931 100.875 7.48547 101.882 6.46742C102.816 5.39335 104.965 5.38195 105.891 6.46583C106.403 6.99464 106.662 7.86364 106.662 8.83454L106.662 8.83486Z" fill="#FCFCF9"/>
<path d="M119.609 17.6204H103.668V15.8498H119.609C120.836 15.8498 121.974 15.5761 122.99 15.0362C124.07 14.4682 124.958 13.5982 125.561 12.5184L125.564 12.5131C126.163 11.4583 126.467 10.2216 126.467 8.83673C126.467 7.4519 126.164 6.21612 125.565 5.16168L125.562 5.15661C124.958 4.07558 124.07 3.20532 122.994 2.63948C121.974 2.09739 120.836 1.82333 119.609 1.82333H99.3398V0.0527344H119.609C121.128 0.0527344 122.546 0.396411 123.822 1.07395C125.197 1.79738 126.334 2.90974 127.106 4.28919C127.857 5.61295 128.238 7.14272 128.238 8.83642C128.238 10.5301 127.857 12.0612 127.105 13.3852C126.334 14.7637 125.197 15.8758 123.817 16.6014C122.545 17.2771 121.128 17.6204 119.608 17.6204H119.609Z" fill="#FCFCF9"/>
<path d="M123.652 6.23742C122.075 3.27313 117.136 3.27661 115.549 6.23837C115.148 6.95926 114.945 7.83396 114.945 8.83746C114.889 11.6695 116.818 13.6752 119.609 13.6559C122.396 13.6752 124.319 11.6495 124.273 8.83746C124.273 7.83396 124.064 6.95895 123.652 6.23742ZM122.375 8.83746C122.375 9.80709 122.116 10.6824 121.606 11.2214C120.68 12.2843 118.53 12.2736 117.595 11.2214C116.597 10.1957 116.588 7.48807 117.595 6.47002C118.529 5.39595 120.678 5.38456 121.604 6.46843C122.116 6.99724 122.375 7.86624 122.375 8.83714L122.375 8.83746Z" fill="#FCFCF9"/>
<path d="M113.779 4.23438C113.163 4.23438 112.668 4.33912 112.308 4.54577C112.096 4.6616 111.9 4.86445 111.716 5.16034C111.671 5.23376 111.558 5.2018 111.558 5.1154V4.36381H109.66V13.4016H111.558V8.24773C111.558 7.49234 111.72 6.94929 112.042 6.63315C112.636 6.01826 113.821 6.17396 114.695 6.15561V4.23438H113.779Z" fill="#FCFCF9"/>
</svg>
